<svg width="16" height="16" viewBox="0 0 16 16" fill="none" xmlns="http://www.w3.org/2000/svg">
<path fill-rule="evenodd" clip-rule="evenodd" d="M4 3H12C12.5523 3 13 3.44772 13 4V12C13 12.5523 12.5523 13 12 13H4C3.44772 13 3 12.5523 3 12V4C3 3.44772 3.44772 3 4 3ZM2 4C2 2.89543 2.89543 2 4 2H12C13.1046 2 14 2.89543 14 4V12C14 13.1046 13.1046 14 12 14H4C2.89543 14 2 13.1046 2 12V4ZM8.35355 8.14645C8.15829 7.95118 7.84171 7.95118 7.64645 8.14645L6 9.79289C5.80474 9.98815 5.80474 10.3047 6 10.5C6.19526 10.6953 6.51184 10.6953 6.70711 10.5L7.29289 9.91421C7.68342 9.52369 8.31658 9.52369 8.70711 9.91421L9.29289 10.5C9.48816 10.6953 9.80474 10.6953 10 10.5C10.1953 10.3047 10.1953 9.98816 10 9.79289L8.35355 8.14645Z" fill="#58626D"/>
</svg>
