<svg
    width="24"
    height="24"
    viewBox="0 0 24 24"
    fill="none"
    xmlns="http://www.w3.org/2000/svg"
    class="flex-grow-0 flex-shrink-0 w-6 h-6 relative"
    preserveAspectRatio="xMidYMid meet">
    <path
      fill-rule="evenodd"
      clip-rule="evenodd"
      d="M10 4V4C10 4.55228 9.55228 5 9 5V5H8V5C7.44772 5 7 5.44772 7 6V6V6C7 7.10457 6.10457 8 5 8V8C3.89543 8 3 8.89543 3 10V20.5C3 20.7761 2.77614 21 2.5 21V21C2.22386 21 2 21.2239 2 21.5V21.5C2 21.7761 2.22386 22 2.5 22H3H7H8H12H13H16H17H20H21H21.5C21.7761 22 22 21.7761 22 21.5V21.5C22 21.2239 21.7761 21 21.5 21V21C21.2239 21 21 20.7761 21 20.5V6V6C21 5.44772 20.5523 5 20 5V5H19.4244C18.5118 5 17.7538 4.34195 17.2082 3.61051C16.4789 2.63298 15.3134 2 14 2H11V2C10.4477 2 10 2.44772 10 3V3V4ZM16.5 12C16.2239 12 16 11.7761 16 11.5V11.5C16 11.2239 16.2239 11 16.5 11H19C19.5523 11 20 10.5523 20 10V10C20 9.44772 19.5523 9 19 9H18.5C18.2239 9 18 8.77614 18 8.5V8.5C18 8.22386 18.2239 8 18.5 8H19C19.5523 8 20 7.55228 20 7V7C20 6.44772 19.5523 6 19 6H17.874V6C17.4177 6 17.0193 5.69114 16.9055 5.24926V5.24926C16.5725 3.95512 15.3965 3 14 3H12C11.4477 3 11 3.44772 11 4V4C11 4.55228 11.4477 5 12 5H14.5C14.7761 5 15 5.22386 15 5.5V5.5C15 5.77614 14.7761 6 14.5 6H11H10H9C8.44772 6 8 6.44772 8 7V7.5C8 7.77614 8.22386 8 8.5 8V8C8.77614 8 9 8.22386 9 8.5V8.5C9 8.77614 8.77614 9 8.5 9V9C8.22386 9 8 9.22386 8 9.5V13.5C8 13.7761 8.22386 14 8.5 14V14C8.77614 14 9 14.2239 9 14.5V14.5C9 14.7761 8.77614 15 8.5 15V15C8.22386 15 8 15.2239 8 15.5V19C8 20.1046 8.89543 21 10 21V21C11.1046 21 12 20.1046 12 19V19V19C12 18.4477 12.4477 18 13 18V18H16V18C16.5523 18 17 18.4477 17 19V19V19.5C17 20.3284 17.6716 21 18.5 21V21C19.3284 21 20 20.3284 20 19.5V16C20 15.4477 19.5523 15 19 15H18.5C18.2239 15 18 14.7761 18 14.5V14.5C18 14.2239 18.2239 14 18.5 14H19C19.5523 14 20 13.5523 20 13V13C20 12.4477 19.5523 12 19 12H16.5ZM15 21C15.5523 21 16 20.5523 16 20V20C16 19.4477 15.5523 19 15 19H14C13.4477 19 13 19.4477 13 20V20C13 20.5523 13.4477 21 14 21H15ZM16 8.5C16 8.22386 15.7761 8 15.5 8H10.5C10.2239 8 10 8.22386 10 8.5V8.5C10 8.77614 10.2239 9 10.5 9H15.5C15.7761 9 16 8.77614 16 8.5V8.5ZM14 11.5C14 11.2239 13.7761 11 13.5 11H9.5C9.22386 11 9 11.2239 9 11.5V11.5C9 11.7761 9.22386 12 9.5 12H13.5C13.7761 12 14 11.7761 14 11.5V11.5ZM5.5 10C5.77614 10 6 10.2239 6 10.5L6 12.5C6 12.7761 5.77614 13 5.5 13V13C5.22386 13 5 12.7761 5 12.5V10.5C5 10.2239 5.22386 10 5.5 10V10ZM5.5 18C5.77614 18 6 17.7761 6 17.5L6 15.5C6 15.2239 5.77614 15 5.5 15V15C5.22386 15 5 15.2239 5 15.5V17.5C5 17.7761 5.22386 18 5.5 18V18ZM11 14.5C11 14.2239 11.2239 14 11.5 14H15.5C15.7761 14 16 14.2239 16 14.5V14.5C16 14.7761 15.7761 15 15.5 15H11.5C11.2239 15 11 14.7761 11 14.5V14.5Z"
      fill="#8C96A0"
    ></path>
  </svg>
