<svg
  width="16"
  height="24"
  viewBox="0 0 16 24"
  fill="none"
  xmlns="http://www.w3.org/2000/svg"
  class="flex-grow-0 flex-shrink-0 w-4 h-6 relative"
  preserveAspectRatio="xMidYMid meet"
>
  <path
    fill-rule="evenodd"
    clip-rule="evenodd"
    d="M9 7H4C3.44772 7 3 7.44772 3 8V13C3 13.5523 3.44772 14 4 14C4.55228 14 5 13.5523 5 13V11C5 9.89543 5.89543 9 7 9H9C9.55228 9 10 8.55228 10 8C10 7.44772 9.55228 7 9 7ZM11 8C11 8.55228 11.4477 9 12 9C13.1046 9 14 9.89543 14 11V16C14 17.1046 13.1046 18 12 18H7C5.89543 18 5 17.1046 5 16C5 15.4477 4.55228 15 4 15C2.89543 15 2 14.1046 2 13V8C2 6.89543 2.89543 6 4 6H9C10.1046 6 11 6.89543 11 8ZM7.5 15C7.22386 15 7 14.7761 7 14.5C7 14.2239 7.22386 14 7.5 14H9C9.55228 14 10 13.5523 10 13V11.5C10 11.2239 10.2239 11 10.5 11C10.7761 11 11 11.2239 11 11.5V13C11 14.1046 10.1046 15 9 15H7.5ZM7 10H12C12.5523 10 13 10.4477 13 11V16C13 16.5523 12.5523 17 12 17H7C6.44772 17 6 16.5523 6 16V11C6 10.4477 6.44772 10 7 10Z"
    fill="#58626D"
  ></path>
</svg>
