<svg
  width="24"
  height="24"
  viewBox="0 0 24 24"
  fill="none"
  xmlns="http://www.w3.org/2000/svg"
  class="flex-grow-0 flex-shrink-0 w-6 h-6 relative"
  preserveAspectRatio="xMidYMid meet">
  <path
    fill-rule="evenodd"
    clip-rule="evenodd"
    d="M8 5C8 4.44772 8.44772 4 9 4H18C19.313 4 20.4289 4.84347 20.8356 6.01811C21.0163 6.54 20.5523 7 20 7H9C8.44772 7 8 6.55228 8 6V5ZM7 5C7 4.44772 6.55228 4 6 4V4C4.34315 4 3 5.34315 3 7V17C3 18.6569 4.34315 20 6 20V20C6.55228 20 7 19.5523 7 19V7.5V5ZM8 19C8 19.5523 8.44772 20 9 20H18C19.6569 20 21 18.6569 21 17V9C21 8.44772 20.5523 8 20 8H9C8.44772 8 8 8.44772 8 9V19ZM2 7C2 4.79086 3.79086 3 6 3H18C20.2091 3 22 4.79086 22 7V17C22 19.2091 20.2091 21 18 21H6C3.79086 21 2 19.2091 2 17V7Z"
    fill="#8C96A0"
  ></path>
</svg>
