<svg
  width="24"
  height="24"
  viewBox="0 0 24 24"
  fill="none"
  xmlns="http://www.w3.org/2000/svg"
  class="flex-grow-0 flex-shrink-0 w-6 h-6 relative"
  preserveAspectRatio="xMidYMid meet"
>
  <path
    fill-rule="evenodd"
    clip-rule="evenodd"
    d="M20 4C20 3.44772 19.5523 3 19 3H8C7.44772 3 7 3.44772 7 4V9C7 9.27614 6.77614 9.5 6.5 9.5V9.5C6.22386 9.5 6 9.27614 6 9V4C6 3.44772 5.52548 2.97928 5.04103 3.24447C4.42067 3.58406 4 4.24291 4 5V15.2508C4 15.8355 4.7411 16.2136 5.31026 16.0797V16.0797C5.67387 15.9941 6 15.6972 6 15.3236V13.5C6 13.2239 6.22386 13 6.5 13V13C6.77614 13 7 13.2239 7 13.5V15C7 15.5523 7.44772 16 8 16H19C19.5523 16 20 15.5523 20 15V4ZM7 17H6C4.89543 17 4 17.8954 4 19C4 20.1046 4.89543 21 6 21H17H18.069C18.8391 21 19.3415 20.1444 19.1631 19.3951C19.0938 19.1042 19.0457 18.8051 19.0205 18.4995C18.9978 18.2242 19.2239 18 19.5 18V18C19.7762 18 19.9974 18.2244 20.0246 18.4992C20.1171 19.432 20.4659 20.2893 20.9996 20.9999C20.9996 21 20.9997 21 20.9998 21V21C20.9999 21 21 21.0001 21 21.0002V21.5C21 21.7761 20.7761 22 20.5 22H20H6C4.34315 22 3 20.6569 3 19V5C3 3.34315 4.34315 2 6 2H20V2C20.5523 2 21 2.44772 21 3V3V16V16C21 16.5523 20.5523 17 20 17V17H17H7ZM12.0018 9.39867C12.2766 8.98649 12.9126 9.1123 13.0097 9.59806C13.2816 10.9574 15.0613 11.3095 15.8302 10.156L16.1387 9.69338C16.2919 9.46361 16.2298 9.15318 16 9V9C15.7702 8.84682 15.4598 8.90891 15.3066 9.13868L14.9982 9.60133C14.7234 10.0135 14.0874 9.8877 13.9903 9.40194C13.7184 8.04258 11.9387 7.69051 11.1698 8.84397L10.8613 9.30662C10.7081 9.53639 10.7702 9.84682 11 10V10C11.2298 10.1532 11.5402 10.0911 11.6934 9.86132L12.0018 9.39867Z"
    fill="#8C96A0"
  ></path>
</svg>
