<svg width="16" height="16" viewBox="0 0 16 16" fill="none" xmlns="http://www.w3.org/2000/svg">
<g clip-path="url(#clip0_16350_8324)">
<path fill-rule="evenodd" clip-rule="evenodd" d="M4 3H12C12.5523 3 13 3.44772 13 4C13 4.55228 12.5523 5 12 5H4C3.44772 5 3 4.55228 3 4C3 3.44772 3.44772 3 4 3ZM2 4C2 2.89543 2.89543 2 4 2H12C13.1046 2 14 2.89543 14 4C14 5.10457 13.1046 6 12 6H4C2.89543 6 2 5.10457 2 4ZM8.35355 11.8536C8.15829 12.0488 7.84171 12.0488 7.64645 11.8536L6 10.2071C5.80474 10.0118 5.80474 9.69526 6 9.5C6.19526 9.30474 6.51184 9.30474 6.70711 9.5L7.29289 10.0858C7.68342 10.4763 8.31658 10.4763 8.70711 10.0858L9.29289 9.5C9.48816 9.30474 9.80474 9.30474 10 9.5C10.1953 9.69526 10.1953 10.0118 10 10.2071L8.35355 11.8536Z" fill="currentColor"/>
</g>
<defs>
<clipPath id="clip0_16350_8324">
<rect width="16" height="16" fill="white"/>
</clipPath>
</defs>
</svg>
