 <svg
  width="16"
  height="16"
  viewBox="0 0 16 16"
  fill="none"
  xmlns="http://www.w3.org/2000/svg"
  class="flex-grow-0 flex-shrink-0 w-4 h-4 relative"
  preserveAspectRatio="xMidYMid meet"
>
  <g clip-path="url(#clip0_25_1483)">
    <path
      fill-rule="evenodd"
      clip-rule="evenodd"
      d="M1.9271 9.35686C2.06162 9.59227 1.984 9.89199 1.75213 10.0325C1.51167 10.1783 1.19836 10.0971 1.05886 9.85299L1.0309 9.80408C0.392083 8.68614 0.392083 7.31373 1.0309 6.1958L1.05885 6.14689C1.19835 5.90276 1.51166 5.82162 1.75212 5.96736C1.984 6.10789 2.06161 6.40762 1.92709 6.64303L1.89915 6.69194C1.436 7.50244 1.436 8.49743 1.89915 9.30794L1.9271 9.35686ZM2.95298 13.1677C2.86914 13.021 2.91752 12.8342 3.06204 12.7466L3.37604 12.5563C3.53046 12.4627 3.73164 12.5148 3.82123 12.6716C4.29061 13.493 5.16415 13.9999 6.11023 13.9999C6.32548 13.9999 6.49997 14.1744 6.49997 14.3897V14.6102C6.49997 14.8254 6.32548 14.9999 6.11023 14.9999C4.8053 14.9999 3.60041 14.3007 2.95298 13.1677ZM9.49997 14.3897C9.49997 14.1744 9.67446 13.9999 9.8897 13.9999C10.8358 13.9999 11.7093 13.493 12.1787 12.6716C12.2683 12.5148 12.4695 12.4627 12.6239 12.5563L12.9379 12.7466C13.0824 12.8342 13.1308 13.021 13.047 13.1677C12.3995 14.3007 11.1946 14.9999 9.8897 14.9999C9.67446 14.9999 9.49997 14.8254 9.49997 14.6102V14.3897ZM14.2478 10.0325C14.0159 9.892 13.9383 9.59227 14.0728 9.35686L14.1008 9.30794C14.5639 8.49743 14.5639 7.50244 14.1008 6.69194L14.0728 6.64302C13.9383 6.40761 14.0159 6.10788 14.2478 5.96735C14.4883 5.82162 14.8016 5.90275 14.9411 6.14688L14.969 6.1958C15.6079 7.31373 15.6079 8.68614 14.969 9.80408L14.9411 9.853C14.8016 10.0971 14.4883 10.1783 14.2478 10.0325ZM12.6239 3.44358C12.4695 3.53717 12.2683 3.48507 12.1787 3.3283C11.7093 2.50687 10.8358 1.99994 9.8897 1.99994C9.67446 1.99994 9.49997 1.82545 9.49997 1.61021V1.38967C9.49997 1.17443 9.67446 0.999939 9.8897 0.999939C11.1946 0.999939 12.3995 1.69916 13.047 2.83216C13.1308 2.97888 13.0824 3.16569 12.9379 3.25328L12.6239 3.44358ZM6.49997 1.6102C6.49997 1.82544 6.32548 1.99994 6.11023 1.99994C5.16415 1.99994 4.29061 2.50687 3.82123 3.3283C3.73164 3.48507 3.53045 3.53717 3.37603 3.44358L3.06204 3.25328C2.91752 3.1657 2.86914 2.97888 2.95298 2.83216C3.60041 1.69916 4.80529 0.999939 6.11023 0.999939C6.32548 0.999939 6.49997 1.17443 6.49997 1.38968V1.6102ZM9.09832 11H6.90155C6.54269 11 6.21135 10.8077 6.0333 10.4962L4.89044 8.49617C4.71477 8.18874 4.71477 7.81133 4.89044 7.5039L6.0333 5.5039C6.21134 5.19232 6.54269 5.00004 6.90154 5.00004H9.09832C9.45718 5.00004 9.78852 5.19232 9.96656 5.5039L11.1094 7.5039C11.2851 7.81133 11.2851 8.18874 11.1094 8.49617L9.96656 10.4962C9.78852 10.8077 9.45718 11 9.09832 11ZM10.8348 10.9923C10.4787 11.6155 9.81603 12 9.09832 12H6.90155C6.18383 12 5.52115 11.6155 5.16506 10.9923L4.0222 8.99231C3.67085 8.37745 3.67085 7.62262 4.0222 7.00776L5.16506 5.00776C5.52114 4.38461 6.18383 4.00004 6.90154 4.00004H9.09832C9.81603 4.00004 10.4787 4.38461 10.8348 5.00776L11.9777 7.00776C12.329 7.62262 12.329 8.37745 11.9777 8.99231L10.8348 10.9923Z"
      fill="#8F142A"
    ></path>
  </g>
  <defs>
    <clipPath id="clip0_25_1483">
      <rect width="16" height="16" fill="white"></rect>
    </clipPath>
  </defs>
</svg>
