<svg width="48" height="48" viewBox="0 0 48 48" fill="none" xmlns="http://www.w3.org/2000/svg" class="h-6 w-6">
<path fill-rule="evenodd" clip-rule="evenodd" d="M16.7547 3H23.2452C27.0294 3 30.5079 5.07771 32.3019 8.40951L35.9171 15.1233C37.5564 18.1678 37.5564 21.8322 35.9171 24.8767L32.3019 31.5905C30.5079 34.9223 27.0294 37 23.2452 37H16.7547C12.9706 37 9.49201 34.9223 7.69796 31.5905L4.08284 24.8767C2.44351 21.8322 2.44351 18.1678 4.08284 15.1233L7.69796 8.40951C9.49201 5.07771 12.9706 3 16.7547 3ZM28.7801 10.3059C27.6837 8.26975 25.5578 7 23.2452 7H16.7547C14.4421 7 12.3162 8.26975 11.2198 10.3059L7.60472 17.0197C6.60288 18.8803 6.60288 21.1197 7.60472 22.9803L11.2198 29.6941C12.1919 31.4993 13.9731 32.7021 15.9763 32.9517C15.347 31.4255 14.9999 29.7533 14.9999 28C14.9999 20.8203 20.8202 15 27.9999 15C29.2401 15 30.4397 15.1737 31.5758 15.498L28.7801 10.3059Z" fill="#D3D6DC"/>
<path fill-rule="evenodd" clip-rule="evenodd" d="M23.2453 6C25.9258 6 28.3898 7.47174 29.6606 9.83181L31.8773 13.9485C32.123 14.405 32.5391 14.742 33.0229 14.9281C38.2736 16.9469 42 22.0383 42 28C42 30.6161 41.2825 33.0646 40.0334 35.1594C39.5158 36.0276 39.5704 37.1562 40.2852 37.8709L45 42.5858C45.3905 42.9763 45.3905 43.6095 45 44C44.6095 44.3905 43.9763 44.3905 43.5858 44L39.0754 39.4896C38.3058 38.72 37.0693 38.7208 36.187 39.3579C33.8847 41.0204 31.0567 42 28 42C22.7154 42 18.1147 39.072 15.7317 34.7498C15.4251 34.1938 14.9031 33.7896 14.3051 33.576C12.6338 32.9791 11.2079 31.7811 10.3394 30.1682L6.7243 23.4544C5.56308 21.2978 5.56308 18.7022 6.7243 16.5456L10.3394 9.83181C11.6102 7.47174 14.0742 6 16.7547 6H23.2453ZM28 14C28.7113 14 29.2229 13.2375 28.8857 12.6112L27.8996 10.78C26.9777 9.06776 25.19 8 23.2453 8H16.7547C14.81 8 13.0224 9.06776 12.1004 10.78L8.48524 17.4938C7.64277 19.0584 7.64277 20.9416 8.48524 22.5062L12.1004 29.22C12.7148 30.361 14.0207 29.5067 14.0016 28.2109C14.0005 28.1408 14 28.0704 14 28C14 20.268 20.268 14 28 14ZM19.9732 34C19.6028 34 19.2536 33.8233 19.059 33.5082C18.6353 32.8217 19.1748 32 19.9815 32H23.2453C25.19 32 26.9777 30.9322 27.8996 29.22L31.5148 22.5062C31.88 21.828 32.0869 21.0898 32.1354 20.3438C32.1901 19.5043 33.0487 18.7528 33.7521 19.2143C33.9948 19.3735 34.1435 19.6397 34.1463 19.93C34.1579 21.1413 33.8677 22.3549 33.2757 23.4544L29.6606 30.1682C28.3898 32.5283 25.9258 34 23.2453 34H19.9732ZM28 16C21.3726 16 16 21.3726 16 28C16 34.6274 21.3726 40 28 40C34.6274 40 40 34.6274 40 28C40 21.3726 34.6274 16 28 16Z" fill="#10151B"/>
</svg>
