<svg
  width="24"
  height="24"
  viewBox="0 0 24 24"
  fill="none"
  xmlns="http://www.w3.org/2000/svg"
  class="flex-grow-0 flex-shrink-0 w-6 h-6 relative"
  preserveAspectRatio="xMidYMid meet">
  <path
    fill-rule="evenodd"
    clip-rule="evenodd"
    d="M17.4153 18.3106C17.6098 18.6906 17.4838 19.1497 17.1333 19.3935C15.6774 20.4063 13.908 21 12 21C10.092 21 8.32268 20.4063 6.8667 19.3935C6.51628 19.1497 6.3902 18.6906 6.58472 18.3106C7.18017 17.1475 8.13457 16.2117 9.29162 15.6357C9.55302 15.5055 9.85813 15.5288 10.1289 15.6381C10.7069 15.8715 11.3384 16 12 16C12.6616 16 13.2932 15.8715 13.8711 15.6381C14.1419 15.5288 14.447 15.5055 14.7084 15.6356C15.8655 16.2117 16.8199 17.1475 17.4153 18.3106ZM19.4304 17.0798C19.0279 17.6675 18.1638 17.5198 17.7471 16.942C17.387 16.4428 16.9642 15.994 16.4912 15.606C15.9436 15.1569 15.8431 14.276 16.2229 13.6783C16.715 12.904 17 11.9853 17 11C17 8.23858 14.7614 6 12 6C9.23858 6 7 8.23858 7 11C7 11.9853 7.28501 12.9041 7.77708 13.6783C8.15696 14.276 8.05643 15.1569 7.50883 15.606C7.03578 15.994 6.613 16.4429 6.25293 16.9421C5.83621 17.5198 4.97213 17.6675 4.56958 17.0798C3.57931 15.6341 3 13.8847 3 12C3 7.02944 7.02944 3 12 3C16.9706 3 21 7.02944 21 12C21 13.8847 20.4207 15.634 19.4304 17.0798ZM18.851 19.2845C18.851 19.2845 18.851 19.2845 18.851 19.2845C20.7895 17.4607 22 14.8717 22 12C22 6.47715 17.5228 2 12 2C6.47715 2 2 6.47715 2 12C2 17.5228 6.47715 22 12 22C14.2456 22 16.3183 21.2598 17.9875 20.0101C17.9875 20.0101 17.9875 20.0101 17.9875 20.0101V20.0101C17.9875 20.0101 17.9875 20.0101 17.9875 20.0101C18.2889 19.7844 18.5772 19.5421 18.851 19.2846C18.851 19.2846 18.851 19.2845 18.851 19.2845V19.2845ZM12 15C12.3452 15 12.6801 14.9563 12.9997 14.8741C14.7251 14.4301 16 12.864 16 11C16 8.79086 14.2091 7 12 7C9.79086 7 8 8.79086 8 11C8 12.4 8.71919 13.6319 9.80825 14.3466C9.80826 14.3466 9.80826 14.3466 9.80827 14.3466V14.3466C9.80828 14.3466 9.80828 14.3466 9.80829 14.3466C10.1496 14.5706 10.5272 14.7438 10.9304 14.8554C11.2709 14.9496 11.6295 15 12 15Z"
    fill="#8C96A0"
  ></path>
</svg>
