  <svg
    width="24"
    height="24"
    viewBox="0 0 24 24"
    fill="none"
    xmlns="http://www.w3.org/2000/svg"
    class="flex-grow-0 flex-shrink-0 w-6 h-6 relative"
    preserveAspectRatio="xMidYMid meet"
  >
    <g clip-path="url(#clip0_8_510)">
      <path
        fill-rule="evenodd"
        clip-rule="evenodd"
        d="M12 18.25C13.6978 18.25 15.2375 17.573 16.3638 16.4743C16.3947 16.4442 16.4442 16.4441 16.4747 16.4747L19.0711 19.0711L21.766 21.766C21.8243 21.8243 21.7643 21.9214 21.686 21.8953L17.3853 20.4617C17.363 20.4543 17.3386 20.4573 17.3187 20.4698C15.7782 21.4392 13.9546 22 12 22C6.47715 22 2 17.5228 2 12C2 6.47715 6.47715 2 12 2C17.5228 2 22 6.47715 22 12C22 14.3589 21.1832 16.527 19.8171 18.237C19.7882 18.2732 19.7343 18.276 19.7015 18.2432L14.4215 12.9632C14.3632 12.9049 14.4232 12.8077 14.5014 12.8338L17.8568 13.9522C17.8977 13.9659 17.942 13.9438 17.9551 13.9027C18.1466 13.3027 18.25 12.6634 18.25 12C18.25 8.54822 15.4518 5.75 12 5.75C8.54822 5.75 5.75 8.54822 5.75 12C5.75 15.4518 8.54822 18.25 12 18.25Z"
        fill="#009FD1"
      ></path>
    </g>
    <defs>
      <clipPath id="clip0_8_510">
        <rect width="20" height="20" fill="white" transform="translate(2 2)"></rect>
      </clipPath>
    </defs>
  </svg>
