<svg
  width="24"
  height="24"
  viewBox="0 0 24 24"
  fill="none"
  xmlns="http://www.w3.org/2000/svg"
  class="flex-grow-0 flex-shrink-0 w-6 h-6 relative"
  preserveAspectRatio="xMidYMid meet"
>
  <path
    fill-rule="evenodd"
    clip-rule="evenodd"
    d="M18 4H6.00002C4.89545 4 4.00002 4.89543 4.00002 6V7C4.00002 7.55228 4.44773 8 5.00002 8H19C19.5523 8 20 7.55228 20 7V6C20 4.89543 19.1046 4 18 4ZM5.00002 14C4.44773 14 4.00002 13.5523 4.00002 13V10C4.00002 9.44772 4.44773 9 5.00002 9H11C11.5523 9 12 9.44772 12 10V13C12 13.5523 11.5523 14 11 14H5.00002ZM5.00002 15C4.44773 15 4.00002 15.4477 4.00002 16V18C4.00002 19.1046 4.89545 20 6.00002 20H11C11.5523 20 12 19.5523 12 19V16C12 15.4477 11.5523 15 11 15H5.00002ZM14 15C13.4477 15 13 15.4477 13 16V19C13 19.5523 13.4477 20 14 20H15C15.5523 20 16 19.5523 16 19V16C16 15.4477 15.5523 15 15 15H14ZM18 15C17.4477 15 17 15.4477 17 16V19C17 19.5523 17.4477 20 18 20V20C19.1046 20 20 19.1046 20 18V16C20 15.4477 19.5523 15 19 15H18ZM20 13C20 13.5523 19.5523 14 19 14H18C17.4477 14 17 13.5523 17 13V10C17 9.44772 17.4477 9 18 9H19C19.5523 9 20 9.44772 20 10V13ZM16 13C16 13.5523 15.5523 14 15 14H14C13.4477 14 13 13.5523 13 13V10C13 9.44772 13.4477 9 14 9H15C15.5523 9 16 9.44772 16 10V13ZM6.00002 3C4.34316 3 3.00002 4.34315 3.00002 6V18C3.00002 19.6569 4.34316 21 6.00002 21H18C19.6569 21 21 19.6569 21 18V6C21 4.34315 19.6569 3 18 3H6.00002ZM9.00002 11.5C9.00002 11.7761 8.77616 12 8.50002 12H6.50002C6.22387 12 6.00002 11.7761 6.00002 11.5V11.5C6.00002 11.2239 6.22387 11 6.50002 11H8.50002C8.77616 11 9.00002 11.2239 9.00002 11.5V11.5ZM6.00002 17.5C6.00002 17.7761 6.22387 18 6.50002 18H9.50002C9.77616 18 10 17.7761 10 17.5V17.5C10 17.2239 9.77616 17 9.50002 17H6.50002C6.22387 17 6.00002 17.2239 6.00002 17.5V17.5Z"
    fill="#8C96A0"
  ></path>
</svg>
