<svg
  width="16"
  height="16"
  viewBox="0 0 16 16"
  fill="none"
  xmlns="http://www.w3.org/2000/svg"
  class="flex-grow-0 flex-shrink-0 w-4 h-4 relative"
  preserveAspectRatio="xMidYMid meet"
>
  <g clip-path="url(#clip0_24_1049)">
    <path
      fill-rule="evenodd"
      clip-rule="evenodd"
      d="M6.1102 2L9.88967 2C10.8358 2 11.7093 2.50693 12.1787 3.32836L14.1008 6.692C14.5639 7.5025 14.5639 8.4975 14.1008 9.308L12.1787 12.6716C11.7093 13.4931 10.8357 14 9.88967 14H6.1102C5.16412 14 4.29058 13.4931 3.8212 12.6716L1.89912 9.308C1.43597 8.4975 1.43597 7.5025 1.89912 6.692L3.8212 3.32836C4.29058 2.50693 5.16412 2 6.1102 2ZM9.88967 1H6.1102C4.80526 1 3.60038 1.69922 2.95295 2.83222L1.03087 6.19586C0.392053 7.31379 0.392053 8.6862 1.03087 9.80414L2.95295 13.1678C3.60038 14.3008 4.80527 15 6.1102 15H9.88967C11.1946 15 12.3995 14.3008 13.0469 13.1678L14.969 9.80414C15.6078 8.6862 15.6078 7.31379 14.969 6.19586L13.0469 2.83222C12.3995 1.69922 11.1946 1 9.88967 1ZM9.09833 12C9.81604 12 10.4787 11.6154 10.8348 10.9923L11.9777 8.99228C12.329 8.37741 12.329 7.62259 11.9777 7.00772L10.8348 5.00772C10.4787 4.38457 9.81604 4 9.09833 4H6.90155C6.18384 4 5.52115 4.38457 5.16506 5.00772L4.02221 7.00772C3.67086 7.62259 3.67086 8.37741 4.02221 8.99228L5.16506 10.9923C5.52115 11.6154 6.18384 12 6.90155 12H9.09833Z"
      fill="#05815A"
    ></path>
  </g>
  <defs>
    <clipPath id="clip0_24_1049">
      <rect width="16" height="16" fill="white"></rect>
    </clipPath>
  </defs>
</svg>
